<svg xmlns="http://www.w3.org/2000/svg" viewBox="0 0 448 512">
  <path fill="#47A248" d="M248 0H208c-26.6 0-48 21.4-48 48v416c0 26.6 21.4 48 48 48h16c26.6 0 48-21.4 48-48v-416c0-26.6-21.4-48-48-48zM584 0h-40c-26.6 0-48 21.4-48 48v416c0 26.6 21.4 48 48 48h16c26.6 0 48-21.4 48-48v-416c0-26.6-21.4-48-48-48zM360 301.9V480c0 17.7-14.3 32-32 32h-32c-17.7 0-32-14.3-32-32V301.9c-18.6-6.6-32-24.4-32-45.3V160c0-26.5 21.5-48 48-48h64c26.5 0 48 21.5 48 48v96.6c0 20.9-13.4 38.7-32 45.3zM424 160c0-8.8-7.2-16-16-16h-32c-8.8 0-16 7.2-16 16v96.6c0 8.8 7.2 16 16 16h32c8.8 0 16-7.2 16-16V160zm-128 0c0-8.8-7.2-16-16-16h-32c-8.8 0-16 7.2-16 16v96.6c0 8.8 7.2 16 16 16h32c8.8 0 16-7.2 16-16V160z"/>
</svg>