<svg xmlns="http://www.w3.org/2000/svg" viewBox="0 0 448 512">
  <path fill="#4479A1" d="M448 80v48c0 44.2-100.3 80-224 80S0 172.2 0 128V80C0 35.8 100.3 0 224 0s224 35.8 224 80zm-54.4 80c0-33.8-57.9-61.4-169.6-61.4S54.4 126.2 54.4 160s57.9 61.4 169.6 61.4 169.6-27.6 169.6-61.4zM0 308v-58c6.7 6.3 15.8 12.3 28 17.8C73.6 284.2 159.8 288 224 288s150.4-3.8 196-20.2c12.2-5.5 21.3-11.5 28-17.8v58c0 44.2-100.3 80-224 80S0 352.2 0 308zm224 92.3c-121.5 0-179.6-27.7-179.6-61.4 0-33.8 58.1-61.4 179.6-61.4 121.5 0 179.6 27.7 179.6 61.4 0 33.7-58.1 61.4-179.6 61.4zm0-184.6c-121.5 0-179.6-27.7-179.6-61.4 0-33.8 58.1-61.4 179.6-61.4 121.5 0 179.6 27.7 179.6 61.4 0 33.7-58.1 61.4-179.6 61.4zM0 432V374c6.7 6.3 15.8 12.3 28 17.8C73.6 408.2 159.8 412 224 412s150.4-3.8 196-20.2c12.2-5.5 21.3-11.5 28-17.8v58c0 44.2-100.3 80-224 80S0 476.2 0 432z"/>
</svg>