<svg xmlns="http://www.w3.org/2000/svg" viewBox="0 0 640 512">
  <path fill="#CD6799" d="M301.84 378.92c-.3.6-.6 1.08 0 0zm249.13-87a131.16 131.16 0 0 0-58 13.5c-5.9-11.9-12-22.3-13-30.1-1.2-9.1-2.5-14.5-1.1-25.3s7.7-26.1 7.6-27.2-1.4-6.6-14.3-6.7-24 2.5-25.29 5.9a122.83 122.83 0 0 0-5.3 19.1c-2.3 11.7-25.79 53.5-39.09 75.3-4.4-8.5-8.1-16-8.9-22-1.2-9.1-2.5-14.5-1.1-25.3s7.7-26.1 7.6-27.2-1.4-6.6-14.29-6.7-24 2.5-25.3 5.9-2.7 11.4-5.3 19.1-33.89 77.3-42.08 95.4c-4.2 10.2-7.8 18.3-10.4 23.8-.1.3-.3.6-.4.9.1-.2.2-.4.2-.5-2.2 4.3-3.5 6.7-3.5 6.7v.1c-1.7 3.2-3.6 6.1-4.5 6.1-.6 0-1.9-8.4.3-19.9 4.7-24.2 15.8-61.8 15.7-63.1-.1-.7 2.1-7.2-7.3-10.7-9.1-3.3-12.4 2.2-13.2 2.2s-1.4 2-1.4 2 10.1-42.4-19.39-42.4c-18.3 0-43.69 20.1-56.18 38.4a1294.3 1294.3 0 0 0-67.5 36.9c-10.79 5.9-21.89 11.9-32.39 17.6-.7-.8-1.4-1.5-2-2.2-51.29-54.8-146.08-93.5-142.28-167 1.4-26.8 10.09-97.7 171.08-183.7 131.79-70.5 237.18-51.2 255.48 28.2 26.09 112.3-189.59 202.8-258.78 134.5-69.7-68.7-20.1-191.7 74.5-212.8 40.4-9.1 82.5 7.3 105.4 36.9 24.1 31.1 21.7 71.2 10.4 90.9-11.39 19.8-25.89 32-33.29 35.4-7.4 3.5-9.7 4.6-9.1 7.1 1 3.6 4.7 3.4 11.5 2.6 9.4-1 59.7-24.2 61.8-79.8 1.4-35.4-32.49-73.9-91.29-72.9-44 .8-79.8 22.4-101.8 44.5-27.29 27.4-39.39 58.4-37.79 83.2 3.9 64.8 52.4 107 94.09 139.9-1.1.7-2.3 1.4-3.3 2-119.09 58.5-152.49 111.5-147.09 158.7 5.4 47.2 40.6 77.6 112.19 75.4 60.29-1.9 102.49-30.1 134.09-75.1 27.49-39.2 39.69-88.2 31.59-136.8-.3-1.3-.5-2.5-.8-3.7 3.5-2.1 7.1-4.2 10.6-6.3 11.5-6.9 22.6-13.4 32.3-19.2-.9 2.5-1.7 5-2.4 7.4-11.39 59.7-2.6 109.1 29.39 118.1 15.6 4.5 31.59-3.5 40.19-16.5 12.5-18.5 9.7-44.2 4.8-70.3zm-371.8 22c-31.5 34.2-75.69 47.1-94.49 36.1-20.39-11.9-12.4-63.1 26.39-100 23.7-22.7 54.3-43.6 74.6-56.4 4.6-2.8 11.5-6.9 19.8-11.8 1.4-.8 2.2-1.4 2.2-1.4 1.6-1 3.5-2.1 5.4-3.2 15.6 57.5 5.3 107.5-33.9 136.7zm115.88-78.2c-11 26.9-33.89 95.6-47.89 91.8-12-3.2-19.29-55.2-2.4-106.5 8.5-25.8 26.59-56.5 37.19-68.5 17.1-19.4 35.99-25.8 40.49-17.9 5.8 10.5-21.29 86.7-27.39 101.1zm110.29 93.5c-4.6 2.5-8.9 4.1-10.9 2.8-1.4-.9 1.8-4.2 1.8-4.2s22.8-24.6 31.7-35.8c5.2-6.5 11.1-14.1 17.5-22.6v2.4c.1 29.3-27.1 49-40.1 57.4zm137.28-65.1c-3.4-2.4-2.8-10.1 8.5-34.2 4.4-9.6 14.4-25.4 31.89-40.5 2 6.2 3.3 12.2 3.2 17.7-.1 37-26.49 50.6-43.59 57z"/>
</svg>