<?xml version="1.0" encoding="UTF-8"?>
<svg width="120" height="120" viewBox="0 0 120 120" fill="none" xmlns="http://www.w3.org/2000/svg">
    <circle cx="60" cy="60" r="60" fill="#4A90E2" fill-opacity="0.1"/>
    <path d="M60 30C44.536 30 32 42.536 32 58C32 73.464 44.536 86 60 86C75.464 86 88 73.464 88 58C88 42.536 75.464 30 60 30ZM60 34C73.255 34 84 44.745 84 58C84 71.255 73.255 82 60 82C46.745 82 36 71.255 36 58C36 44.745 46.745 34 60 34Z" fill="#4A90E2"/>
    <path d="M60 38C48.954 38 40 46.954 40 58C40 69.046 48.954 78 60 78C71.046 78 80 69.046 80 58C80 46.954 71.046 38 60 38ZM60 42C68.837 42 76 49.163 76 58C76 66.837 68.837 74 60 74C51.163 74 44 66.837 44 58C44 49.163 51.163 42 60 42Z" fill="#4A90E2"/>
    <path d="M60 46C53.373 46 48 51.373 48 58C48 64.627 53.373 70 60 70C66.627 70 72 64.627 72 58C72 51.373 66.627 46 60 46ZM60 50C64.418 50 68 53.582 68 58C68 62.418 64.418 66 60 66C55.582 66 52 62.418 52 58C52 53.582 55.582 50 60 50Z" fill="#4A90E2"/>
</svg> 