<svg width="32" height="32" viewBox="0 0 32 32" fill="none" xmlns="http://www.w3.org/2000/svg">
  <defs>
    <linearGradient id="petalGradient" x1="0%" y1="0%" x2="100%" y2="100%">
      <stop offset="0%" style="stop-color:#3B82F6;stop-opacity:1" />
      <stop offset="50%" style="stop-color:#8B5CF6;stop-opacity:1" />
      <stop offset="100%" style="stop-color:#EC4899;stop-opacity:1" />
    </linearGradient>
    <linearGradient id="centerGradient" x1="0%" y1="0%" x2="100%" y2="100%">
      <stop offset="0%" style="stop-color:#F59E0B;stop-opacity:1" />
      <stop offset="100%" style="stop-color:#EF4444;stop-opacity:1" />
    </linearGradient>
  </defs>
  
  <!-- Background circle -->
  <circle cx="16" cy="16" r="15" fill="url(#petalGradient)" opacity="0.1"/>
  
  <!-- Flower petals -->
  <g transform="translate(16,16)">
    <!-- Top petal -->
    <ellipse cx="0" cy="-8" rx="3" ry="6" fill="url(#petalGradient)" opacity="0.9"/>
    
    <!-- Top-right petal -->
    <ellipse cx="5.7" cy="-5.7" rx="3" ry="6" fill="url(#petalGradient)" opacity="0.8" transform="rotate(45)"/>
    
    <!-- Right petal -->
    <ellipse cx="8" cy="0" rx="3" ry="6" fill="url(#petalGradient)" opacity="0.9" transform="rotate(90)"/>
    
    <!-- Bottom-right petal -->
    <ellipse cx="5.7" cy="5.7" rx="3" ry="6" fill="url(#petalGradient)" opacity="0.8" transform="rotate(135)"/>
    
    <!-- Bottom petal -->
    <ellipse cx="0" cy="8" rx="3" ry="6" fill="url(#petalGradient)" opacity="0.9" transform="rotate(180)"/>
    
    <!-- Bottom-left petal -->
    <ellipse cx="-5.7" cy="5.7" rx="3" ry="6" fill="url(#petalGradient)" opacity="0.8" transform="rotate(225)"/>
    
    <!-- Left petal -->
    <ellipse cx="-8" cy="0" rx="3" ry="6" fill="url(#petalGradient)" opacity="0.9" transform="rotate(270)"/>
    
    <!-- Top-left petal -->
    <ellipse cx="-5.7" cy="-5.7" rx="3" ry="6" fill="url(#petalGradient)" opacity="0.8" transform="rotate(315)"/>
    
    <!-- Center circle -->
    <circle cx="0" cy="0" r="4" fill="url(#centerGradient)"/>
    <circle cx="0" cy="0" r="2" fill="#FFFFFF" opacity="0.3"/>
  </g>
</svg>